<?xml version="1.0" encoding="utf-8"?>
<!-- Generator: Adobe Illustrator 16.0.0, SVG Export Plug-In . SVG Version: 6.00 Build 0)  -->
<!DOCTYPE svg PUBLIC "-//W3C//DTD SVG 1.1//EN" "http://www.w3.org/Graphics/SVG/1.1/DTD/svg11.dtd">
<svg version="1.1" id="Calque_1" xmlns="http://www.w3.org/2000/svg" xmlns:xlink="http://www.w3.org/1999/xlink" x="0px" y="0px"
	 width="150px" height="150px" viewBox="0 0 150 150" enable-background="new 0 0 150 150" xml:space="preserve">
<g>
	<defs>
		<rect id="SVGID_1_" x="-0.158" y="2.125" width="150.317" height="142.986"/>
	</defs>
	<clipPath id="SVGID_2_">
		<use xlink:href="#SVGID_1_"  overflow="visible"/>
	</clipPath>
	<path clip-path="url(#SVGID_2_)" fill="#FFFFFF" d="M137.249,76.574c0.698,2.578,0.009,3.93-1.466,5.51
		c0.019-2.512-0.087-5.039-0.395-7.359C136.357,74.773,137.218,75.108,137.249,76.574"/>
	<path clip-path="url(#SVGID_2_)" fill="#FFFFFF" d="M133.645,74.772c0.518,0,1.15-0.086,1.744-0.048
		c0.306,2.321,0.412,4.85,0.394,7.36c-0.011,0.01-0.021,0.029-0.03,0.039c-0.823,0.871-3.496,3.084-7.808,4.762
		c0.315-3.201,0.315-6.746-0.153-9.858c0.584-0.26,1.178-0.549,1.812-0.854C131.749,74.772,132.294,74.772,133.645,74.772"/>
	<path clip-path="url(#SVGID_2_)" fill="#1D1B18" d="M127.945,86.885c4.312-1.678,6.984-3.891,7.808-4.762
		c0.009-0.01,0.02-0.029,0.029-0.039c-0.048,6.391-0.92,12.607-1.428,14.639c-0.201,3.01-1.906,3.307-2.404,5.5
		c0.201,1.303-1.303,4.809-3.785,8.01l-1.485-0.096c0.883-1.486,1.505-3.037,1.572-4.359c0.163-3.199-0.336-6.43-2.193-8.604
		c0.125-1.082,0.238-2.08,0.335-2.951C127.091,92.451,127.648,89.807,127.945,86.885"/>
	<path clip-path="url(#SVGID_2_)" fill="#FFFFFF" d="M125.32,82.047c0.775-1.744,1.074-3.191,1.074-4.398
		c0.449-0.191,0.919-0.402,1.397-0.622c0.47,3.112,0.47,6.659,0.153,9.858c-1.744,0.678-3.755,1.264-6.025,1.648
		C122.588,87.574,123.7,85.695,125.32,82.047"/>
	<path clip-path="url(#SVGID_2_)" fill="#AF191A" d="M126.392,77.648c-4.81,2.002-8.298,2.404-12.598,2.566
		c-5.202,0.201-9.398-3.794-11.2-7.799c-2.299-6.448-0.449-12.254,0.546-14.506c0.385-1.715,3.766-7.636,5.95-10.566
		c4.369,3.563,8.833,8.546,11.957,15.349c0.604,1.351,0.374,2.854,0.374,2.854s0.373,0.374,1.274,1.351
		c0.9,0.969,0.449,2.55,0,3.066c-0.451,0.527-1.572,1.504,0.075,2.252C123.989,72.769,126.374,74.265,126.392,77.648"/>
	<path clip-path="url(#SVGID_2_)" fill="#1D1B18" d="M128.165,110.232c-0.182,2.895-4.215,7.396-5.814,8.498
		c-1.102,1.199-1.801,2.902-1.801,2.902s-2.406,0.9-4.8,2.701c-0.509,2.895-1.907,2.598-1.907,2.598s-2.597,2.404-4.493,2.596
		c0,1.006-1.609,1.111-2.405,2.607c-1.896,0.201-2.098,1.102-3.304,1.6c-2.396-0.402-4.695,2.002-4.695,2.002s-3.306,0-4.302,1.148
		c-2.501-0.248-1.908-0.355-3.9-0.047c-2.003,0.297-2.106-0.805-2.003-1.303c0.098-0.5,1.103-1.102,2.099-1.801
		c1.896-0.299,3.104-0.996,4.303-1.197c1.197-0.201,2.403-0.508,2.902-1.102c0.499-0.604,2.798-1.707,2.798-1.707
		s2.202,0.307,2.606-0.996c0.393-1.303,2.395-2.596,2.395-2.596s2.903-1.906,5.403-4.006c0.057-0.219,1.937-1.926,4.351-4.166
		c0.048-0.01,0.104-0.02,0.153-0.029c2.05-0.258,3.247-1.102,3.247-1.102s0.048-0.26,2.099-0.854
		c1.341-0.393,3.918-3.008,5.585-5.844L128.165,110.232z"/>
	<path clip-path="url(#SVGID_2_)" fill="#FFFFFF" d="M124.745,95.977c0.499,0.344,0.93,0.746,1.313,1.197
		c-0.585,4.865-1.629,11.354-4.407,14.955c-1.937,1.982-4.167,4.072-6.056,5.834c-1.064,0.25-3.468,0.299-5.681-0.736
		c2.117-1.43,3.18-3.02,3.735-4.283c0.844,0.25,1.61,0.354,1.917,0.383c0.825,0.076,6.523-2.549,6.831-5.854
		c0.298-3.295,0.526-5.395-0.824-6.525c-1.15-0.955-0.508-1.043-1.227-1.043c0.326-1.764,0.518-3.574,0.634-5.193
		C123.259,95.018,124.745,95.977,124.745,95.977"/>
	<path clip-path="url(#SVGID_2_)" fill="#AF191A" d="M120.347,99.904c-0.557,3.037-1.505,5.91-3.123,7.27
		c-1.351,1.881-1.284,3.078-1.284,3.078s-1.044,0.525-1.647,0.604c-0.087,0.344-0.22,1.119-0.642,2.088
		c-1.428-0.422-3.085-1.236-3.182-2.691c-0.151-2.33,1.571-4.197,3.373-6.449s6.008-3.305,6.008-3.305v-0.594
		C120.07,99.904,120.223,99.895,120.347,99.904"/>
	<path clip-path="url(#SVGID_2_)" fill="#FFFFFF" d="M121.651,112.129c2.778-3.604,3.822-10.09,4.407-14.955
		c1.857,2.174,2.356,5.402,2.193,8.604c-0.067,1.32-0.689,2.875-1.572,4.359c-1.666,2.836-4.243,5.451-5.585,5.844
		c-2.051,0.594-2.098,0.854-2.098,0.854s-1.197,0.842-3.247,1.102c-0.049,0.008-0.105,0.018-0.154,0.027
		C117.482,116.201,119.714,114.111,121.651,112.129"/>
	<path clip-path="url(#SVGID_2_)" fill="#FFFFFF" d="M120.75,43.166c-2.615-2.807-5.557-5.71-7.827-7.924
		c3.191-0.182,4.321,0.47,4.321,0.47l2.749,1.198c0,0,0.757,0.248,0.757,0.556V43.166z"/>
	<path clip-path="url(#SVGID_2_)" fill="#1D1B18" d="M113.047,44.363c0,0,1.293,0.499,4.943,0.7
		c3.649,0.201,2.759-0.997,2.759-0.997v-0.9c2.424,2.606,4.57,5.135,5.643,6.946c3.239,5.498,4.456,7.808,4.658,10.404
		c0.2,2.596,2.499,5.298,2.499,5.298s0.402-2.299,1.303,5.902c0.221,0.948,0.402,1.954,0.536,3.008
		c-0.593-0.038-1.226,0.049-1.743,0.049c-1.35,0-1.896,0-4.042,1.398c-0.634,0.307-1.227,0.596-1.812,0.855
		c-0.278-1.881-0.736-3.615-1.398-5.004c0.642-1.408-1.542-3.708-1.446-5.9c-0.402-3.805-2.404-6.209-2.902-6.707
		s-0.498-2.3-2.3-4.303c-0.698-0.498-7.3-8.603-7.904-9.302c-0.144-0.163-0.374-0.403-0.632-0.661
		C112.406,44.267,113.047,44.363,113.047,44.363"/>
	<path clip-path="url(#SVGID_2_)" fill="#FFFFFF" d="M113.238,96.723c2.895-2.031,5.653-2.289,7.742-2.012
		c-0.115,1.619-0.307,3.43-0.633,5.193c-0.125-0.01-0.277,0-0.497,0v0.594c0,0-4.206,1.053-6.009,3.307
		c-1.801,2.25-3.525,4.117-3.372,6.447c0.097,1.455,1.754,2.27,3.182,2.691c-0.556,1.264-1.619,2.855-3.737,4.283
		c-1.485-0.699-2.884-1.869-3.728-3.795C104.041,108.479,107.194,100.977,113.238,96.723"/>
	<path clip-path="url(#SVGID_2_)" fill="#FFFFFF" d="M102.594,72.416c1.801,4.005,5.998,8,11.2,7.799
		c4.301-0.162,7.788-0.564,12.599-2.566c0,1.207-0.298,2.654-1.073,4.398c-1.619,3.648-2.73,5.527-3.4,6.484
		c-2.434,0.412-5.165,0.576-8.174,0.346c-12.702-1.006-18.604-4.504-19.553-19.805c-0.824-13.278,6.016-23.903,7.854-26.5
		c2.146,1.197,4.581,2.749,7.043,4.771c-2.185,2.932-5.567,8.853-5.949,10.568C102.144,60.162,100.295,65.967,102.594,72.416"/>
	<path clip-path="url(#SVGID_2_)" fill="#FFFFFF" d="M112.922,35.243c2.271,2.213,5.213,5.115,7.827,7.923v0.901
		c0,0,0.892,1.197-2.758,0.996c-3.652-0.201-4.944-0.7-4.944-0.7s-0.642-0.095-1.84,0.786c-0.824-0.805-1.964-1.84-1.964-1.84
		s-3.736-1.044-6.036-2.309c1.313-1.657,4.293-4.925,7.884-5.586C111.772,35.32,112.375,35.27,112.922,35.243"/>
	<path clip-path="url(#SVGID_2_)" fill="#FFFFFF" d="M110.192,46.011c-0.297,0.296-0.681,0.757-1.102,1.332
		c-2.462-2.022-4.896-3.574-7.043-4.771c0.278-0.394,0.442-0.613,0.442-0.613s0.257-0.384,0.718-0.958
		c2.299,1.264,6.035,2.309,6.035,2.309s1.141,1.034,1.964,1.84C110.901,45.369,110.566,45.646,110.192,46.011"/>
	<path clip-path="url(#SVGID_2_)" fill="#FFFFFF" d="M98.446,101.83c0,0,1.103,0,1.82,2.846c1.274,2.902,2.835,7.299,0,9.457
		c-2.722,2.701-7.166,4.598-10.203,3.342c-3.026-1.244-6.324-4.291-0.672-5.547c2.349,0,5.003-0.746,5.003-0.746
		s2.346-0.5,0.843-3.9c-2.242-3.756-4.59-6.908-5.174-9.35c-0.576-2.453,0-5.107,0-5.107s0.325-0.939,2.529-2.146
		c2.203-1.207,6.495-3.258,7.003-3.602c0.499-0.355,2.875-1.102,3.698,0.746c0,0,3.201,3.9-2.653,6.104
		c-2.902,1.398-5.652,2.5-3.498,5.547C98.292,101.428,98.446,101.83,98.446,101.83"/>
	<path clip-path="url(#SVGID_2_)" fill="#FFFFFF" d="M77.982,98.678c0,0,1.054,1.85,3.324,5.998
		c1.917,4.406,2.777,7.404-1.571,10.748c-4.349,3.355-7.349,2.561-9.446,2.004c-2.107-0.547-3.057-2.252-2.807-3.498
		c0.249-1.254,1.35-1.953,4.599-2.252c3.104,0.098,4.159-1.35,4.503-2.203c0.355-0.842-1.398-4.271-1.398-4.271
		s-2.75-3.479-3.852-6.832c-2.3-5.893,1.456-7.098,1.456-7.098l8.518-4.4c0,0-0.517-0.746-1.015-4.205
		c-1.055-3.096-1.103-15.35-1.103-15.35s0-8.699-0.354-16.2c-0.145-7.502,3.755-7.253,3.755-7.253s0.547-0.105,2.252,0.699
		c1.85,1.102,1.945,3.852,1.992,4.149c0.059,0.296,0.854,3.104,0.854,3.104s0.556,6.197,0.048,9.244
		c-0.499,3.057,1.103,16.212,1.954,22.008c1.648,5.453-2.5,7.801-4.551,7.848c-0.651,2.309-3.401,3.104-6.304,4.453
		C75.931,96.723,77.982,98.678,77.982,98.678"/>
	<path clip-path="url(#SVGID_2_)" fill="#FFFFFF" d="M84.678,33.029c-1.256-0.077-3.679-0.402-8.335-1.38
		c0.7-2.289,3.995-2.739,3.995-2.739C82.207,28.67,83.394,29.954,84.678,33.029"/>
	<path clip-path="url(#SVGID_2_)" fill="#FFFFFF" d="M85.55,35.731c-3.17-1.141-6.659-1.553-9.868-1.6
		c0.144-0.854,0.412-1.696,0.652-2.472l0.009-0.01c4.656,0.977,7.081,1.303,8.335,1.379c0.058,0.125,0.104,0.249,0.163,0.384
		C85.206,34.322,85.425,35.08,85.55,35.731"/>
	<path clip-path="url(#SVGID_2_)" fill="#FFFFFF" d="M75.682,34.131c3.209,0.048,6.698,0.46,9.868,1.6
		c0.315,1.725-0.134,2.693-0.709,3.928c-0.805,1.706-2.252,1.055-2.252,1.055s-1.8-0.048-4.905-1.955
		C75.634,37.503,75.404,35.807,75.682,34.131"/>
	<path clip-path="url(#SVGID_2_)" fill="#AF191A" d="M59.309,56.31c1.647,5.327,0.604,10.96-2.329,15.157
		c-2.921,4.207-6.821,7.339-7.578,7.685c-0.747,0.346-0.967,1.092-4.042,1.168c-2.107,0.23-2.309,0-2.252-0.449
		c0,0,1.419-12.227,1.419-15.226c0-3.008,3.381-6.907,4.875-8.335C50.907,54.893,57.661,50.994,59.309,56.31"/>
	<path clip-path="url(#SVGID_2_)" fill="#AF191A" d="M53.005,93.82c0,0,1.725,3.23,3.755,3.459c2.022,0.221,1.198,4.043,1.198,4.426
		c0,0.373-1.255,7.646-2.396,9.15c-1.13,1.494-3.229,5.02-8.258,2.471c-5.03-2.547-2.472-6.523-1.054-10.578
		c1.427-4.051,2.931-6.227,4.503-7.27C52.334,94.424,53.005,93.82,53.005,93.82"/>
	<path clip-path="url(#SVGID_2_)" fill="#FFFFFF" d="M47.305,113.326c5.03,2.549,7.127-0.977,8.258-2.471
		c1.14-1.504,2.395-8.777,2.395-9.15c0-0.383,0.824-4.205-1.197-4.426c-2.031-0.23-3.756-3.459-3.756-3.459s-0.67,0.604-2.251,1.658
		c-1.572,1.043-3.076,3.219-4.503,7.271C44.832,106.801,42.274,110.779,47.305,113.326 M61.934,95.871
		c0.153,2.807,1.696,12.963,2.999,15.807c0.853,3,1.753,5.453,1.753,5.453s1.198,2.549-1.303,2.605c-2.5,0.047-3.2-1.906-3.2-2.654
		c0-0.758-1.552-6.908-1.897-6.908c0,0-3.007,5.25-3.199,5.48c-0.201,0.23-0.402,2.723-5.26,2.826
		c-4.847,0.098-5.949-0.047-9.149-3.65c-1.274-1.438-1.715-3.592-1.6-5.977c0.163-3.574,1.59-7.666,3.305-10.578
		c2.117-3.602,3.986-6.592,6.4-7.387c0.192-0.059,0.383-0.105,0.585-0.145c0.67-0.115,1.389-0.068,2.165,0.184
		c3.898,1.244,7.501,2.594,7.501,2.594S61.781,93.072,61.934,95.871"/>
	<path clip-path="url(#SVGID_2_)" fill="#AF191A" d="M90.063,97.93c0.585,2.443,2.932,5.596,5.174,9.352
		c1.503,3.4-0.843,3.898-0.843,3.898s-2.654,0.748-5.003,0.748c-5.651,1.256-2.354,4.303,0.672,5.547
		c3.037,1.256,7.482-0.641,10.203-3.344c2.836-2.154,1.274-6.553,0-9.455c-0.718-2.846-1.82-2.846-1.82-2.846
		s-0.153-0.402-1.303-2.357c-2.155-3.047,0.595-4.148,3.497-5.547c5.854-2.203,2.653-6.104,2.653-6.104
		c-0.823-1.85-3.198-1.102-3.697-0.746c-0.509,0.344-4.801,2.395-7.004,3.602s-2.529,2.146-2.529,2.146S89.488,95.479,90.063,97.93
		 M79.189,67.319c0,0,0.048,12.255,1.103,15.349c0.498,3.459,1.016,4.207,1.016,4.207l-8.519,4.396c0,0-3.756,1.207-1.456,7.1
		c1.102,3.354,3.852,6.83,3.852,6.83s1.752,3.432,1.398,4.273c-0.346,0.854-1.398,2.301-4.503,2.205
		c-3.249,0.297-4.35,0.996-4.599,2.25c-0.249,1.244,0.7,2.951,2.807,3.498c2.098,0.555,5.097,1.35,9.446-2.002
		c4.349-3.344,3.488-6.344,1.572-10.75c-2.271-4.148-3.325-5.998-3.325-5.998s-2.051-1.953,0.853-3.305
		c2.902-1.352,5.652-2.146,6.304-4.455c2.051-0.049,6.199-2.395,4.551-7.848c-0.852-5.796-2.453-18.952-1.954-22.007
		c0.508-3.048-0.048-9.246-0.048-9.246s-0.795-2.807-0.854-3.104c-0.047-0.296-0.143-3.047-1.992-4.148
		c-1.705-0.805-2.252-0.699-2.252-0.699s-3.899-0.249-3.755,7.253C79.189,58.62,79.189,67.319,79.189,67.319 M90.743,38.011
		c0.671,0.748,3.823,1.274,3.823,1.274s3.172,0.9,7.482,3.286c-1.84,2.597-8.68,13.222-7.856,26.5
		c0.949,15.301,6.851,18.799,19.555,19.805c3.009,0.229,5.739,0.066,8.173-0.344c-0.547,0.773-0.796,0.938-0.796,0.938
		s0.058,2.279-0.144,5.24c-2.089-0.277-4.848-0.02-7.742,2.014c-6.044,4.252-9.197,11.754-7.05,16.707
		c0.842,1.926,2.24,3.096,3.728,3.795c-0.47,0.307-0.979,0.611-1.543,0.9c-3.604,3.975-4.581,3.602-4.581,3.602
		s-0.823,0.373-0.67,1.504c0.145,1.121-1.207,0.527-1.207,0.527l-2.252,0.373c0,0-1.274,0.52-2.318,2.549
		c-1.658,1.121-4.656,1.945-4.656,1.945s-1.571,0.9-2.022,2.031c-0.449,1.121-6.007,0.527-6.007,0.527s-0.315,0.297-3.535,0.594
		c-3.209,0.307-6.811,1.955-6.811,1.955l-3.823-0.748c0,0-2.251-0.834-3.306-0.977c-1.053-0.154-1.427-0.154-2.174,0.143
		c-0.747,0.307-1.428-0.824-2.252-0.967c-0.824-0.154-2.107,0.516-3.075,0c0,0-15.299-8.26-16.498-9.006
		c-1.207-0.748-1.361-0.373-1.504-1.945c-0.153-1.58-2.701-2.557-2.701-2.557s-0.748-0.078-2.3-2.051
		c2.625-0.201,4.033-1.955,4.253-5.453c0.019-0.361,0.039-0.812,0.058-1.32h0.086c-0.115,2.385,0.325,4.541,1.6,5.979
		c3.2,3.602,4.302,3.746,9.149,3.65c4.857-0.107,5.059-2.598,5.26-2.828c0.192-0.229,3.2-5.48,3.2-5.48
		c0.345,0,1.897,6.152,1.897,6.908c0,0.748,0.7,2.701,3.201,2.654c2.5-0.057,1.302-2.605,1.302-2.605s-0.9-2.453-1.753-5.451
		c-1.303-2.846-2.845-13.002-2.999-15.809c-0.152-2.799-0.9-2.348-0.9-2.348s-3.603-1.352-7.501-2.598
		c-0.777-0.248-1.495-0.295-2.165-0.18c0.698-0.193,1.388-0.471,2.069-0.873c4.599-2.348,9.447-4.705,13.949-15.953
		c1.6-0.7,4.302-11.508,2.702-20.11c-1.601-8.594-9.303-15.1-20.311-10.999c-3.095,1.149-5.567,2.846-7.531,4.666l-1.485-0.192
		c1.418-1.265,2.348-2.146,2.348-2.146s1.724-1.581,1.724-2.251c0-0.25,0.297-0.479,0.662-0.661c0.613-0.297,1.437-0.47,1.437-0.47
		s4.723-2.175,4.723-2.691c0-0.528,0.45-0.758,4.35-1.428c3.908-0.681,8.334-2.329,8.334-2.329s5.165-1.265,11.345-1.178
		c-0.278,1.677-0.049,3.373,2.001,4.628c3.105,1.906,4.905,1.954,4.905,1.954s1.447,0.65,2.252-1.054
		c0.575-1.236,1.024-2.204,0.708-3.928c0.691,0.248,1.381,0.526,2.042,0.852C89.766,36.583,90.063,37.263,90.743,38.011"/>
	<path clip-path="url(#SVGID_2_)" fill="#AF191A" d="M42.025,90.371c1.83-0.039,5.318,1.236,8.756,0.518
		c-2.414,0.795-4.283,3.785-6.4,7.387c-1.714,2.914-3.142,7.002-3.305,10.578h-0.086C41.153,103.633,41.077,91.789,42.025,90.371"/>
	<path clip-path="url(#SVGID_2_)" fill="#AF191A" d="M32.425,79.152l-0.651-1.381c0,0-0.096,6.105-0.7,7.35
		c-0.594,1.256-0.344,5.049-0.296,6.256c0.028,0.787-0.105,8.977-0.21,14.707c-2.779-3.822-3.594-8.432-3.594-8.432
		s-2.845-9.379-1.801-23.934c0.029-0.775,0.144-1.59,0.345-2.434c1.083-4.541,4.34-9.725,5.729-11.822
		c1.657-2.472,2.777-5.997,2.777-5.997s-0.076-0.824,1.726-1.504c1.801-0.671,1.208-1.352,3.449-3.297
		c0.566-0.488,1.093-0.958,1.562-1.379l1.485,0.191c-5.011,4.686-6.667,10.289-6.667,10.289s-1.102-0.048-1.649,2.702
		C33.375,63.218,32.282,78.031,32.425,79.152"/>
	<path clip-path="url(#SVGID_2_)" fill="#FFFFFF" d="M49.776,42.811c11.009-4.101,18.71,2.405,20.311,10.999
		c1.601,8.603-1.102,19.41-2.701,20.11c-4.504,11.248-9.352,13.605-13.95,15.953c-0.681,0.402-1.371,0.68-2.069,0.873
		c-0.201,0.037-0.394,0.084-0.585,0.143c-3.439,0.719-6.927-0.557-8.757-0.518c-0.948,1.418-0.872,13.26-1.035,18.482
		c-0.019,0.508-0.039,0.959-0.058,1.32c-0.22,3.498-1.628,5.252-4.253,5.453c-1.083-1.391-2.557-3.719-4.455-7.629
		c-0.613-0.592-1.168-1.244-1.657-1.916c0.105-5.729,0.239-13.92,0.211-14.705c-0.048-1.207-0.296-5,0.296-6.256
		c0.604-1.246,0.7-7.35,0.7-7.35l0.651,1.381c-0.144-1.121,0.949-15.935,1.504-18.684c0.546-2.75,1.648-2.701,1.648-2.701
		s1.657-5.605,6.668-10.29C44.209,45.657,46.682,43.96,49.776,42.811 M56.981,71.467c2.932-4.197,3.976-9.83,2.329-15.157
		c-1.648-5.316-8.403-1.418-9.908,0c-1.494,1.428-4.875,5.327-4.875,8.335c0,2.999-1.419,15.224-1.419,15.224
		c-0.057,0.451,0.145,0.682,2.252,0.451c3.076-0.076,3.296-0.822,4.042-1.168C50.159,78.809,54.058,75.674,56.981,71.467"/>
	<path clip-path="url(#SVGID_2_)" fill="#FFFFFF" d="M30.558,113.115c0.182-0.229,0.565-0.459,1.169,0.211
		c-0.009,0.105,0.01,0.23,0.038,0.365C31.142,113.375,30.729,113.193,30.558,113.115"/>
	<path clip-path="url(#SVGID_2_)" fill="#FFFFFF" d="M30.538,113.105c0.097-0.277,0.192-0.775-0.058-1.475v-0.01
		c0-0.279,0.039-2.586,0.086-5.537c0.488,0.67,1.044,1.322,1.657,1.916c1.897,3.908,3.373,6.238,4.455,7.627
		c-0.488,0.037-1.025,0.027-1.6-0.049c-1.352-0.852-2.5-1.477-3.315-1.887c-0.029-0.135-0.048-0.26-0.039-0.365
		c-0.604-0.67-0.986-0.441-1.168-0.211C30.548,113.105,30.548,113.105,30.538,113.105"/>
	<path clip-path="url(#SVGID_2_)" fill="#FFFFFF" d="M30.481,113.078c-0.344-0.154,0-0.652,0-1.447
		c0.249,0.699,0.153,1.197,0.058,1.475C30.5,113.088,30.481,113.078,30.481,113.078"/>
	<path clip-path="url(#SVGID_2_)" fill="#1D1B18" d="M30.433,113.307c0.019-0.018,0.028-0.039,0.039-0.057
		C30.452,113.268,30.442,113.299,30.433,113.307 M22.327,89.529c0.901,1.791,2.194,11.496,2.194,11.496l2.606,3.803
		c0,0-0.201,2.002,2.002,4.896c0.757,0.729,1.15,1.369,1.351,1.896v0.01c0,0.795-0.345,1.293,0,1.447c0,0,0.019,0.008,0.057,0.027
		c-0.018,0.029-0.028,0.066-0.038,0.088c0.02-0.021,0.038-0.047,0.058-0.078c0.171,0.078,0.584,0.26,1.207,0.576
		c0.296,1.504,2.664,4.541,2.664,4.541s3.497,2.299,7.099,6.602c5.203,2.902,4.302,3.898,4.302,3.898s-0.814,0.613-3.324-0.105
		c-1.956-1.457-1.84-0.748-2.884-1.494c-1.801-1.84-1.504-1.389-2.481-2.098c-1.159-0.346-1.456-1.314-1.456-1.314
		s-0.191-0.602-1.016-1.129c-1.877-0.26-1.992-1.045-1.992-1.045s-0.413-1.619-1.121-2.174c-1.274-0.566-2.061-3.422-4.226-5.348
		c-3.104-2.299-2.204-2.797-2.386-3.697c-1.178-0.805-1.016-1.504-1.016-1.504s1.198-1.295-1.906-4.494
		c-3.095-3.199-1.992-4.703-2.098-5.605c-0.699-0.699-0.794-2.002-0.794-2.002s0.393-1.197-0.202-2.098
		c-1.906-1.398-1.101-2.404-1.101-2.703c0-0.297-0.297-2.5,0.498-3.102c0.805-0.596,0.307-2.1-0.699-3.795
		c-0.997-1.705,0.104-1.6-0.403-4.906c-1.293-2.998-1.293-4.6-1.293-4.6s0.394-2.098,0.814-3.803c-0.488-3,0.086-3.296,0.086-3.296
		s-0.507,0,0.9-2.903c0.7-3.698,1.399-4.502,1.399-4.502s0.593-0.201,1.601-3.296c2.203-5.604,3.103-7.109,4.214-7.704
		c1.111-0.603,2.185-2.998,2.185-2.998s2.3-4.504,5.806-7.904c3.496-3.4,17.495-13.902,30.006-16.01
		c12.503-2.098,22.803-0.191,28.396,1.409c5.604,1.6,16.911,5.9,17.811,6.993c0.277,0.354,1.772,1.772,3.775,3.737
		c-0.546,0.028-1.149,0.076-1.83,0.172c-3.592,0.661-6.572,3.929-7.885,5.586c-0.805-0.451-1.438-0.92-1.667-1.39
		c-1.102-0.604-2.002-0.604-2.002-0.604l-4.101-3.094c0,0-3.297-1.601-5.797-1.782c-1.905-1.284-3.603-1.218-3.603-1.218
		s0,0.201-1.359,0.116c-1.283-3.076-2.473-4.359-4.34-4.12c0,0-3.296,0.449-3.995,2.739c-0.231-0.048-0.441-0.085-0.681-0.144
		c-14.87,0.805-20.034,3.009-21.834,3.805c-1.352,0.604-5.328,3.275-9.131,5.681c-1.284,0.796-2.538,1.571-3.669,2.223
		c-4.1,3.104-3.497,4.303-3.802,4.906c-0.298,0.593-1.993,1.092-3.315,2.298c-0.623,1.697-1.379,1.294-2.683,3.2
		c-0.604,1.897-1.896,4.6-1.896,4.6s-2.107,2.001-4.388,8.497c-0.344,1.85-0.671,3.258-0.977,4.33
		c-0.901,3.21-1.543,3.374-1.543,3.374s0.403,3.402,0.202,6.208c-0.699,2.396-0.699,3.9-0.699,3.9l0.402,2.299
		C22.327,86.826,21.428,87.729,22.327,89.529"/>
	<path clip-path="url(#SVGID_2_)" fill="#1D1B18" d="M30.471,113.25c-0.01,0.02-0.02,0.039-0.039,0.057
		C30.442,113.299,30.452,113.27,30.471,113.25"/>
	<path clip-path="url(#SVGID_2_)" fill="#1E1E1C" d="M30.874,22.056c0.192-0.149,0.36-0.166,0.505-0.047
		c0.144,0.12,0.249,0.274,0.313,0.466c0.312-0.106,0.62-0.158,0.924-0.154s0.625,0.078,0.964,0.226
		c0.32,0.146,0.601,0.34,0.842,0.581c0.24,0.242,0.454,0.51,0.64,0.803c0.186,0.292,0.346,0.603,0.48,0.928s0.25,0.639,0.348,0.94
		c0.254,0.766,0.412,1.545,0.475,2.339c0.062,0.795,0.059,1.589-0.01,2.382c-0.044,0.757-0.158,1.509-0.34,2.254
		c-0.183,0.745-0.457,1.458-0.819,2.138c-0.162,0.298-0.354,0.612-0.579,0.942c-0.223,0.329-0.48,0.634-0.771,0.911
		c-0.29,0.279-0.603,0.502-0.936,0.668c-0.333,0.168-0.689,0.241-1.063,0.225c-0.402-0.029-0.767-0.144-1.095-0.344
		c-0.328-0.198-0.623-0.45-0.886-0.753c-0.262-0.302-0.487-0.629-0.676-0.98s-0.345-0.693-0.468-1.027
		c-0.302-0.693-0.526-1.416-0.676-2.168c-0.149-0.753-0.234-1.516-0.256-2.291c-0.029-0.785,0.015-1.567,0.128-2.345
		c-0.05-0.064-0.087-0.129-0.113-0.195c-0.026-0.065-0.049-0.134-0.07-0.204c-0.048-0.236-0.024-0.449,0.071-0.636
		c0.096-0.187,0.204-0.378,0.324-0.575l0.339-0.522c0.239-0.687,0.553-1.328,0.945-1.927C29.806,23.089,30.292,22.545,30.874,22.056
		 M29.372,26.637c-0.333,1.224-0.456,2.498-0.367,3.822c0.089,1.324,0.409,2.58,0.958,3.767c0.11,0.207,0.249,0.434,0.417,0.681
		c0.167,0.248,0.364,0.464,0.587,0.652c0.224,0.186,0.468,0.317,0.734,0.394c0.266,0.074,0.546,0.04,0.845-0.107
		c0.441-0.207,0.827-0.56,1.158-1.061c0.332-0.499,0.612-1.075,0.842-1.729c0.229-0.653,0.4-1.341,0.514-2.065
		c0.112-0.725,0.171-1.416,0.173-2.071c0.02-1.186-0.25-2.334-0.809-3.444l-0.014-0.017c-0.14-0.269-0.303-0.515-0.488-0.74
		c-0.185-0.226-0.396-0.401-0.631-0.526c-0.235-0.126-0.493-0.191-0.772-0.196c-0.279-0.005-0.579,0.084-0.901,0.266l0.032-0.025
		c-0.373,0.206-0.745,0.502-1.115,0.886C30.164,25.505,29.776,26.011,29.372,26.637"/>
	<path clip-path="url(#SVGID_2_)" fill="#1E1E1C" d="M42.303,24.531c-0.306,0.347-0.629,0.805-0.973,1.372
		c-0.341,0.567-0.668,1.164-0.979,1.791c-0.309,0.626-0.588,1.249-0.835,1.864c-0.247,0.616-0.421,1.145-0.526,1.583
		c-0.177,0.817-0.349,1.628-0.511,2.428c-0.164,0.803-0.322,1.605-0.475,2.41c-0.022,0.104-0.06,0.204-0.115,0.304
		c-0.055,0.099-0.121,0.183-0.198,0.255c-0.077,0.072-0.164,0.119-0.26,0.14s-0.194-0.004-0.293-0.074
		c-0.197-0.11-0.293-0.277-0.292-0.502c0.004-0.225,0.023-0.431,0.061-0.62l0.753-3.768c0.264-1.231,0.523-2.457,0.777-3.677
		c0.256-1.22,0.521-2.448,0.797-3.688c0.016-0.084,0.049-0.179,0.101-0.283c0.052-0.105,0.116-0.192,0.194-0.266
		c0.076-0.071,0.164-0.123,0.264-0.152c0.099-0.03,0.204-0.013,0.314,0.05c0.198,0.111,0.296,0.273,0.296,0.488
		s-0.02,0.417-0.057,0.606c-0.014,0.116-0.034,0.223-0.059,0.32c-0.025,0.097-0.048,0.198-0.07,0.302l0.348-0.601
		c0.203-0.34,0.42-0.686,0.654-1.041c0.233-0.355,0.512-0.643,0.84-0.864c0.286-0.214,0.569-0.277,0.854-0.191
		c0.284,0.087,0.471,0.313,0.56,0.682c0.075,0.343,0.087,0.702,0.033,1.075c-0.053,0.376-0.117,0.736-0.193,1.084
		c-0.021,0.104-0.053,0.267-0.095,0.488c-0.042,0.224-0.087,0.45-0.132,0.682c-0.045,0.232-0.083,0.434-0.116,0.604
		c-0.031,0.171-0.035,0.25-0.012,0.236c0.418-0.253,0.791-0.633,1.12-1.139c0.329-0.507,0.626-1.015,0.891-1.525
		c0.421-0.793,0.808-1.623,1.161-2.488c0.046-0.085,0.104-0.228,0.175-0.427c0.07-0.199,0.162-0.378,0.276-0.539
		c0.114-0.161,0.238-0.272,0.374-0.339c0.135-0.063,0.283-0.001,0.445,0.189c0.132,0.16,0.192,0.351,0.179,0.573
		c-0.011,0.221-0.062,0.45-0.149,0.69c-0.088,0.239-0.188,0.468-0.299,0.689c-0.113,0.222-0.2,0.403-0.264,0.544
		c-0.213,0.437-0.421,0.862-0.629,1.281c-0.208,0.418-0.439,0.834-0.693,1.247c-0.063,0.111-0.173,0.288-0.328,0.531
		c-0.153,0.243-0.333,0.505-0.538,0.783c-0.204,0.278-0.423,0.553-0.655,0.823c-0.232,0.27-0.473,0.489-0.719,0.661
		c-0.248,0.169-0.484,0.266-0.71,0.286c-0.228,0.021-0.429-0.075-0.605-0.288c-0.137-0.173-0.228-0.37-0.27-0.593
		c-0.042-0.223-0.058-0.453-0.045-0.69c0.011-0.236,0.044-0.47,0.1-0.698c0.053-0.228,0.1-0.438,0.136-0.626
		c0.064-0.312,0.149-0.656,0.254-1.035C42.269,25.102,42.315,24.786,42.303,24.531"/>
	<path clip-path="url(#SVGID_2_)" fill="#1E1E1C" d="M49.7,22.31c-0.62,0.963-1.327,1.843-2.124,2.642
		c0.22,0.046,0.45,0.027,0.686-0.057c0.237-0.081,0.47-0.2,0.701-0.354s0.453-0.326,0.662-0.515c0.211-0.189,0.41-0.364,0.596-0.522
		c0.404-0.386,0.809-0.832,1.219-1.337c0.409-0.505,0.791-1.013,1.146-1.527c0.224-0.288,0.425-0.587,0.604-0.895
		c0.179-0.308,0.381-0.607,0.604-0.896c0.097-0.125,0.205-0.213,0.323-0.265c0.117-0.053,0.229-0.067,0.333-0.041
		c0.104,0.025,0.188,0.087,0.256,0.186c0.066,0.098,0.103,0.232,0.111,0.403c-0.006,0.177-0.043,0.351-0.115,0.522
		c-0.072,0.174-0.16,0.341-0.265,0.505c-0.104,0.163-0.217,0.322-0.339,0.478c-0.122,0.155-0.223,0.3-0.303,0.432
		c-0.223,0.289-0.444,0.584-0.663,0.886c-0.219,0.301-0.439,0.595-0.662,0.885c-0.467,0.6-0.979,1.177-1.536,1.73
		c-0.557,0.555-1.177,1.02-1.86,1.397c-0.271,0.162-0.567,0.297-0.889,0.405c-0.32,0.109-0.628,0.158-0.923,0.147
		c-0.295-0.011-0.562-0.102-0.8-0.271c-0.24-0.17-0.399-0.456-0.482-0.86c-0.157-0.68-0.14-1.379,0.056-2.1
		c0.197-0.721,0.452-1.373,0.764-1.957c0.126-0.237,0.29-0.503,0.489-0.797c0.199-0.295,0.426-0.565,0.679-0.815
		c0.252-0.249,0.526-0.445,0.82-0.587s0.596-0.185,0.908-0.13c0.393,0.082,0.641,0.264,0.741,0.544
		c0.101,0.281,0.116,0.595,0.044,0.94c-0.071,0.348-0.189,0.69-0.357,1.029C49.958,21.856,49.815,22.122,49.7,22.31 M48.542,20.991
		c-0.324,0.327-0.601,0.697-0.826,1.111c-0.226,0.413-0.389,0.87-0.487,1.373c0.534-0.539,1.004-1.111,1.411-1.717
		c0.049-0.062,0.109-0.151,0.181-0.265c0.072-0.115,0.141-0.229,0.207-0.341c0.067-0.112,0.116-0.218,0.15-0.318
		s0.036-0.174,0.004-0.219c-0.04-0.028-0.092-0.034-0.159-0.016c-0.065,0.018-0.13,0.049-0.191,0.095
		c-0.062,0.046-0.119,0.097-0.171,0.152C48.609,20.903,48.57,20.952,48.542,20.991"/>
	<path clip-path="url(#SVGID_2_)" fill="#1E1E1C" d="M54.508,17.578c0.088-0.149,0.206-0.252,0.352-0.31
		c0.146-0.059,0.29-0.081,0.434-0.069c0.143,0.013,0.259,0.06,0.35,0.142c0.091,0.081,0.124,0.188,0.103,0.32
		c-0.017,0.102-0.041,0.188-0.07,0.26c-0.032,0.07-0.076,0.168-0.135,0.295c-0.059,0.127-0.139,0.306-0.241,0.534
		c-0.103,0.229-0.228,0.545-0.377,0.946c0.15-0.179,0.307-0.372,0.471-0.582c0.164-0.209,0.331-0.416,0.502-0.621
		c0.171-0.204,0.345-0.403,0.52-0.595c0.174-0.19,0.349-0.357,0.522-0.5c0.207-0.178,0.446-0.352,0.718-0.519
		c0.271-0.167,0.552-0.232,0.842-0.195c0.25,0.049,0.424,0.181,0.52,0.394c0.097,0.213,0.139,0.433,0.126,0.66
		c-0.012,0.282-0.056,0.562-0.131,0.841c-0.076,0.277-0.167,0.566-0.272,0.867c-0.105,0.299-0.222,0.611-0.349,0.938
		c-0.126,0.325-0.235,0.668-0.324,1.026c0.339-0.198,0.624-0.377,0.85-0.531c0.226-0.156,0.499-0.372,0.82-0.649
		c0.623-0.522,1.131-1.052,1.526-1.586s0.723-0.975,0.985-1.321c0.065-0.072,0.153-0.196,0.262-0.372
		c0.109-0.174,0.235-0.339,0.378-0.494c0.141-0.155,0.29-0.259,0.445-0.312c0.154-0.054,0.298-0.006,0.434,0.141
		c0.153,0.157,0.213,0.326,0.182,0.51c-0.029,0.183-0.101,0.369-0.213,0.558c-0.113,0.19-0.241,0.369-0.387,0.539
		c-0.144,0.172-0.259,0.314-0.341,0.435c-0.274,0.349-0.546,0.691-0.817,1.026c-0.271,0.335-0.556,0.659-0.854,0.973
		c-0.173,0.198-0.425,0.47-0.757,0.812c-0.332,0.344-0.699,0.676-1.1,0.994c-0.401,0.319-0.811,0.578-1.229,0.775
		c-0.417,0.197-0.792,0.254-1.122,0.17c-0.24-0.063-0.376-0.229-0.408-0.493c-0.033-0.264-0.008-0.574,0.077-0.933
		c0.083-0.356,0.201-0.733,0.352-1.128c0.15-0.396,0.289-0.756,0.416-1.083c0.127-0.326,0.219-0.59,0.28-0.794
		c0.06-0.204,0.042-0.295-0.049-0.271c-0.364,0.218-0.731,0.529-1.105,0.933c-0.372,0.402-0.73,0.836-1.073,1.302
		c-0.342,0.465-0.671,0.937-0.981,1.414c-0.312,0.479-0.595,0.903-0.85,1.276c-0.058,0.1-0.126,0.218-0.203,0.356
		c-0.076,0.139-0.164,0.262-0.262,0.371c-0.098,0.108-0.207,0.189-0.326,0.24c-0.12,0.052-0.245,0.045-0.373-0.021
		c-0.175-0.08-0.271-0.21-0.288-0.387c-0.018-0.179-0.001-0.364,0.046-0.559c0.048-0.194,0.112-0.385,0.19-0.574
		c0.078-0.187,0.137-0.341,0.174-0.462c0.251-0.777,0.505-1.573,0.766-2.389C53.772,19.063,54.104,18.296,54.508,17.578"/>
	<path clip-path="url(#SVGID_2_)" fill="#1E1E1C" d="M71.16,11.443c0.012-0.136,0.062-0.255,0.156-0.359
		c0.093-0.102,0.198-0.179,0.312-0.229c0.115-0.049,0.229-0.074,0.345-0.075c0.114-0.002,0.207,0.036,0.276,0.117
		c0.245,0.049,0.52,0.059,0.823,0.027c0.306-0.033,0.688-0.054,1.148-0.061c0.199-0.248,0.395-0.495,0.588-0.742
		C75,9.874,75.202,9.625,75.415,9.378c0.147-0.178,0.303-0.287,0.472-0.322c0.169-0.037,0.312-0.02,0.429,0.053
		c0.116,0.073,0.193,0.19,0.229,0.353c0.036,0.161-0.011,0.346-0.143,0.551c-0.092,0.137-0.182,0.274-0.269,0.411
		c-0.085,0.137-0.182,0.268-0.288,0.392c0.651-0.012,1.292-0.027,1.921-0.053c0.629-0.023,1.27-0.041,1.92-0.053
		c0.162-0.002,0.412-0.013,0.752-0.032c0.339-0.019,0.678-0.011,1.018,0.023c0.339,0.034,0.625,0.122,0.858,0.26
		c0.231,0.139,0.318,0.357,0.254,0.656c-0.026,0.097-0.071,0.198-0.137,0.309c-0.066,0.109-0.143,0.205-0.229,0.288
		c-0.088,0.082-0.188,0.142-0.302,0.178s-0.235,0.035-0.357-0.005c-0.161-0.011-0.244-0.09-0.248-0.239
		c-0.936-0.052-1.925-0.069-2.969-0.052c-1.043,0.017-2.262,0.052-3.658,0.102c-0.689,0.894-1.353,1.769-1.989,2.626
		s-1.225,1.685-1.769,2.479c-0.093,0.123-0.225,0.312-0.396,0.565c-0.172,0.254-0.321,0.498-0.446,0.729
		c-0.125,0.232-0.192,0.414-0.204,0.543c-0.011,0.129,0.097,0.13,0.326,0.004c0.283-0.127,0.564-0.267,0.846-0.421
		c0.283-0.153,0.599-0.342,0.947-0.564c0.349-0.223,0.748-0.487,1.197-0.793c0.448-0.306,0.98-0.673,1.598-1.104
		c0.187-0.151,0.376-0.314,0.571-0.486c0.193-0.174,0.405-0.274,0.634-0.306c0.23-0.045,0.388,0.027,0.471,0.215
		c0.086,0.189,0.095,0.378,0.03,0.569c-0.089,0.245-0.246,0.451-0.466,0.618c-0.22,0.166-0.438,0.325-0.653,0.479
		c-0.349,0.249-0.8,0.569-1.356,0.957c-0.556,0.39-1.135,0.766-1.74,1.127c-0.604,0.363-1.182,0.678-1.733,0.945
		c-0.551,0.267-0.996,0.409-1.334,0.429c-0.338,0.005-0.573-0.059-0.705-0.192c-0.131-0.132-0.201-0.305-0.211-0.515
		c-0.011-0.21,0.023-0.438,0.1-0.683c0.077-0.246,0.168-0.464,0.274-0.654c0.59-1.149,1.281-2.252,2.069-3.309
		s1.595-2.121,2.417-3.192l-0.569,0.01c-0.15-0.011-0.318-0.016-0.508-0.012c-0.19,0.003-0.36-0.017-0.51-0.063
		c-0.15-0.045-0.267-0.124-0.349-0.237C71.125,11.846,71.109,11.673,71.16,11.443"/>
	<path clip-path="url(#SVGID_2_)" fill="#1E1E1C" d="M82.368,8.298c0.087-0.06,0.19-0.101,0.307-0.124
		c0.118-0.023,0.228-0.021,0.327,0.01C83.1,8.212,83.18,8.268,83.24,8.349c0.062,0.08,0.086,0.194,0.071,0.343
		c-0.019,0.189-0.082,0.347-0.197,0.472C83,9.29,82.864,9.406,82.705,9.513c-0.431,0.369-0.886,0.803-1.366,1.303
		c-0.483,0.499-0.969,1.029-1.455,1.591c-0.488,0.56-0.969,1.125-1.443,1.692c-0.476,0.568-0.919,1.105-1.334,1.611
		c0.186-0.105,0.451-0.236,0.793-0.396c0.341-0.159,0.7-0.303,1.081-0.431c0.379-0.128,0.751-0.216,1.116-0.264
		s0.665-0.007,0.896,0.124c0.131,0.066,0.224,0.157,0.282,0.271c0.058,0.114,0.09,0.232,0.1,0.356
		c0.01,0.123-0.003,0.252-0.035,0.385c-0.032,0.132-0.075,0.252-0.126,0.355c-0.147,0.259-0.339,0.536-0.577,0.834
		c-0.24,0.299-0.487,0.598-0.747,0.901c-0.261,0.302-0.509,0.599-0.748,0.891c-0.238,0.29-0.429,0.559-0.574,0.803
		c0.513-0.103,1.028-0.261,1.544-0.479c0.517-0.217,1.049-0.472,1.594-0.761c0.372-0.211,0.739-0.425,1.101-0.643
		c0.359-0.219,0.722-0.447,1.084-0.686c0.086-0.046,0.209-0.134,0.371-0.262c0.161-0.128,0.337-0.241,0.521-0.34
		c0.187-0.099,0.361-0.146,0.523-0.146c0.164,0.002,0.284,0.096,0.362,0.278c0.077,0.199,0.07,0.382-0.02,0.551
		c-0.093,0.168-0.225,0.326-0.402,0.473c-0.177,0.146-0.363,0.276-0.556,0.388c-0.194,0.11-0.351,0.209-0.466,0.292
		c-0.796,0.499-1.606,0.973-2.43,1.419c-0.824,0.447-1.705,0.806-2.641,1.071c-0.154,0.026-0.348,0.062-0.583,0.109
		c-0.236,0.046-0.465,0.066-0.689,0.059s-0.424-0.05-0.6-0.127c-0.178-0.078-0.296-0.229-0.356-0.452
		c-0.064-0.196-0.066-0.394-0.006-0.593c0.059-0.198,0.149-0.391,0.268-0.577c0.121-0.187,0.252-0.361,0.396-0.525
		c0.144-0.162,0.278-0.314,0.398-0.452c0.045-0.05,0.162-0.187,0.345-0.407s0.382-0.453,0.596-0.7
		c0.213-0.245,0.408-0.469,0.583-0.671c0.175-0.2,0.276-0.307,0.305-0.318c-0.442-0.068-0.963,0.041-1.561,0.324
		c-0.599,0.285-1.194,0.649-1.787,1.091c-0.592,0.441-1.155,0.906-1.69,1.394c-0.536,0.488-0.962,0.901-1.28,1.239
		c-0.09,0.101-0.209,0.175-0.357,0.222c-0.147,0.048-0.282,0.062-0.402,0.045c-0.122-0.019-0.222-0.075-0.301-0.171
		c-0.079-0.096-0.103-0.237-0.072-0.426c0.027-0.16,0.104-0.311,0.225-0.448c0.121-0.138,0.237-0.277,0.345-0.417
		c0.599-0.734,1.152-1.41,1.658-2.03c0.507-0.621,0.997-1.208,1.47-1.764c0.473-0.554,0.936-1.086,1.384-1.596
		s0.901-1.029,1.36-1.558c0.274-0.315,0.548-0.637,0.825-0.966c0.274-0.327,0.561-0.651,0.856-0.971
		c0.294-0.319,0.595-0.626,0.901-0.917C81.691,8.804,82.018,8.538,82.368,8.298"/>
	<path clip-path="url(#SVGID_2_)" fill="#1E1E1C" d="M87.053,18.771c-1.049,0.457-2.126,0.798-3.23,1.02
		c0.157,0.162,0.358,0.272,0.602,0.335c0.242,0.062,0.503,0.093,0.781,0.093c0.278,0.001,0.557-0.021,0.837-0.061
		c0.28-0.041,0.542-0.076,0.784-0.104c0.55-0.098,1.136-0.244,1.757-0.437c0.619-0.194,1.219-0.404,1.799-0.636
		c0.347-0.116,0.68-0.253,0.999-0.41c0.32-0.155,0.654-0.293,1-0.41c0.149-0.049,0.288-0.062,0.417-0.041
		c0.126,0.022,0.227,0.072,0.298,0.151c0.072,0.079,0.108,0.178,0.109,0.296c0.002,0.118-0.042,0.25-0.131,0.397
		c-0.102,0.144-0.229,0.268-0.386,0.372c-0.155,0.103-0.322,0.194-0.499,0.271c-0.178,0.078-0.361,0.148-0.548,0.21
		s-0.352,0.126-0.491,0.191c-0.346,0.116-0.693,0.238-1.043,0.37c-0.348,0.129-0.695,0.252-1.042,0.367
		c-0.722,0.24-1.467,0.437-2.237,0.589c-0.771,0.152-1.544,0.196-2.322,0.132c-0.316-0.016-0.638-0.067-0.965-0.156
		c-0.327-0.087-0.611-0.217-0.851-0.39c-0.237-0.172-0.411-0.396-0.515-0.668c-0.106-0.274-0.08-0.602,0.076-0.984
		c0.244-0.653,0.648-1.225,1.21-1.716c0.563-0.491,1.137-0.893,1.722-1.206c0.237-0.126,0.52-0.257,0.849-0.392
		c0.329-0.133,0.667-0.234,1.017-0.302c0.349-0.066,0.685-0.078,1.008-0.032c0.323,0.045,0.6,0.177,0.828,0.395
		c0.281,0.286,0.387,0.575,0.315,0.864c-0.072,0.29-0.235,0.559-0.485,0.808s-0.54,0.468-0.867,0.657
		C87.52,18.536,87.256,18.678,87.053,18.771 M86.822,17.031c-0.452,0.092-0.887,0.248-1.304,0.465
		c-0.417,0.219-0.806,0.51-1.166,0.873c0.743-0.151,1.451-0.366,2.126-0.645c0.073-0.025,0.173-0.065,0.297-0.121
		c0.124-0.055,0.245-0.11,0.363-0.168c0.116-0.058,0.216-0.118,0.301-0.182c0.083-0.065,0.125-0.125,0.124-0.181
		c-0.019-0.046-0.059-0.079-0.124-0.102c-0.064-0.021-0.135-0.03-0.212-0.026c-0.078,0.003-0.153,0.014-0.228,0.032
		C86.927,16.995,86.868,17.013,86.822,17.031"/>
</g>
</svg>
