<?xml version="1.0" encoding="utf-8"?>
<!-- Generator: Adobe Illustrator 16.0.0, SVG Export Plug-In . SVG Version: 6.00 Build 0)  -->
<!DOCTYPE svg PUBLIC "-//W3C//DTD SVG 1.1//EN" "http://www.w3.org/Graphics/SVG/1.1/DTD/svg11.dtd">
<svg version="1.1" id="Calque_1" xmlns="http://www.w3.org/2000/svg" xmlns:xlink="http://www.w3.org/1999/xlink" x="0px" y="0px"
	 width="238.301px" height="68px" viewBox="0 0 238.301 68" enable-background="new 0 0 238.301 68" xml:space="preserve">
<path fill="#131324" d="M167.889,7.272c-0.236-0.763-0.922-1.328-1.764-1.328h-1.875V7.82v1.035c0,1.55-1.262,2.812-2.812,2.812
	c-1.549,0-2.812-1.262-2.812-2.812V7.82V5.945h-11.26V7.82v1.035c0,1.55-1.263,2.812-2.812,2.812c-1.552,0-2.812-1.262-2.812-2.812
	V7.82V5.945h-1.865c-0.842,0-1.527,0.564-1.766,1.328H138V7.82v5.841v16.464c0,1.035,0.84,1.875,1.875,1.875h26.25
	c1.035,0,1.875-0.84,1.875-1.875V13.661V7.82V7.272H167.889z M166.125,30.125h-26.25v-15h26.25V30.125z M144.553,9.792
	c0.518,0,0.938-0.42,0.938-0.938V2.938c0-0.517-0.419-0.938-0.938-0.938c-0.517,0-0.938,0.42-0.938,0.938v5.917
	C143.615,9.373,144.036,9.792,144.553,9.792 M161.438,9.792c0.519,0,0.938-0.42,0.938-0.938V2.938c0-0.517-0.42-0.938-0.938-0.938
	c-0.518,0-0.938,0.42-0.938,0.938v5.917C160.5,9.373,160.92,9.792,161.438,9.792"/>
<path fill="#B31E29" d="M109.684,29.857c0,1.184,0.84,2.143,1.877,2.143c1.035,0,1.875-0.959,1.875-2.143s-0.84-2.143-1.875-2.143
	C110.523,27.714,109.684,28.673,109.684,29.857 M126.57,29.857c0,1.184,0.839,2.143,1.875,2.143c1.037,0,1.877-0.959,1.877-2.143
	s-0.84-2.143-1.877-2.143C127.409,27.714,126.57,28.673,126.57,29.857 M104,3.071c0,0.592,0.421,1.072,0.938,1.072h1.951
	l1.166,5.691l1.629,9.309c0,0.077,0.031,0.144,0.041,0.219l-0.957,4.907c-0.061,0.317,0.006,0.65,0.186,0.902
	c0.179,0.255,0.445,0.4,0.73,0.4h21.284c0.519,0,0.938-0.48,0.938-1.071s-0.42-1.071-0.938-1.071h-20.112l0.431-2.207
	c0.094,0.017,0.179,0.064,0.274,0.064h17.104c1.036,0,1.661-0.233,2.158-1.606l3.048-10.676c0.528-1.913-0.634-2.717-1.669-2.717
	h-22.516c-0.146,0-0.272,0.059-0.412,0.094l-0.728-3.552C108.445,2.343,108.068,2,107.631,2h-2.693C104.419,2,104,2.48,104,3.071
	 M109.721,8.429h22.336l-2.994,10.498c-0.037,0.092-0.064,0.159-0.088,0.204c-0.062,0.006-0.16,0.013-0.312,0.013h-17.102v-0.212
	l-0.037-0.208L109.721,8.429z"/>
<path fill="#131324" d="M200.125,9.5h-11.21h-3.79h-11.25c-1.035,0-1.875,0.84-1.875,1.875V17h1.875v13.125
	c0,1.035,0.84,1.875,1.875,1.875h9.375h3.79h9.335c1.035,0,1.875-0.84,1.875-1.875V17H202v-5.625C202,10.34,201.16,9.5,200.125,9.5
	 M173.875,11.375h11.25v3.75h-11.25V11.375z M175.75,17h9.375v13.125h-9.375V17z M198.25,30.125h-9.335V17h9.335V30.125z
	 M200.125,15.125h-11.21v-3.75h11.21V15.125z M187,7.625c0-0.004-0.002-0.011-0.002-0.015h0.006C187.002,7.614,187,7.621,187,7.625
	h7.5c2.589,0,3.75-1.26,3.75-2.812C198.25,3.26,197.089,2,194.5,2c-2.424,0-4.333,1.091-5.625,2.357
	c-0.566-0.335-1.221-0.54-1.93-0.54c-0.68,0-1.307,0.191-1.858,0.502C183.797,3.069,181.9,2,179.5,2c-2.589,0-3.75,1.26-3.75,2.812
	c0,1.553,1.161,2.812,3.75,2.812L187,7.625L187,7.625z M196.375,4.812c0,0.774-1.02,0.938-1.875,0.938h-4.258
	c-0.016-0.026-0.028-0.055-0.043-0.079c0.951-0.926,2.396-1.796,4.301-1.796C195.355,3.875,196.375,4.038,196.375,4.812
	 M177.625,4.812c0-0.774,1.02-0.938,1.875-0.938c1.863,0,3.277,0.834,4.229,1.729c-0.027,0.047-0.051,0.098-0.08,0.146H179.5
	C178.645,5.75,177.625,5.587,177.625,4.812"/>
<g>
	<path fill="none" stroke="#131324" stroke-width="2" stroke-linecap="round" stroke-linejoin="round" stroke-miterlimit="10" d="
		M16.992,2h-1.424c-0.93,0-0.848,1.206-0.848,1.206h0.33c-0.769,2.083-0.071,1.888-0.071,1.888c0,2.312-0.27,3.047-0.785,3.639
		c-1.527,1.756-1.019,4.19-1.567,4.995c-1.342,1.966-1.301,3.166-1.301,3.694c0,0.361,0.021,10.129,0,12.408
		c-0.021,2.279,1.891,2.169,1.891,2.169h3.774"/>
	<path fill="none" stroke="#131324" stroke-width="2" stroke-linecap="round" stroke-linejoin="round" stroke-miterlimit="10" d="
		M17.008,31.999h3.774c0,0,1.912,0.109,1.891-2.17c-0.021-2.279,0-12.047,0-12.407c0-0.528,0.041-1.728-1.301-3.695
		c-0.548-0.804-0.039-3.239-1.567-4.994C19.29,8.141,19.02,7.405,19.02,5.094c0,0,0.698,0.195-0.071-1.888h0.331
		c0,0,0.082-1.206-0.849-1.206h-1.424"/>
	<rect x="11.327" y="19.195" fill="#131425" width="11.347" height="8.781"/>
</g>
<path fill="#B31E29" d="M47.247,32h5.622l0.003-15l5.105-0.002l0.548-5.169h-5.656l0.007-2.587c0-1.348,0.091-2.07,2.027-2.07h3.573
	V2h-5.124c-4.967,0-6.11,2.567-6.11,6.784l0.005,3.045l-3.771,0.002V17h3.771V32z"/>
<path fill="#FFFFFF" d="M167.889,41.271c-0.236-0.764-0.922-1.328-1.764-1.328h-1.875v1.875v1.035c0,1.551-1.262,2.812-2.812,2.812
	c-1.549,0-2.812-1.263-2.812-2.812V41.82v-1.875h-11.26v1.875v1.035c0,1.55-1.263,2.812-2.812,2.812
	c-1.552,0-2.812-1.262-2.812-2.812V41.82v-1.875h-1.865c-0.842,0-1.527,0.562-1.766,1.328H138v0.547v5.841v16.464
	c0,1.035,0.84,1.875,1.875,1.875h26.25c1.035,0,1.875-0.84,1.875-1.875V47.661V41.82v-0.547h-0.111V41.271z M166.125,64.125h-26.25
	v-15h26.25V64.125z M144.553,43.792c0.518,0,0.938-0.42,0.938-0.938v-5.916c0-0.518-0.419-0.938-0.938-0.938
	c-0.517,0-0.938,0.42-0.938,0.938v5.916C143.615,43.373,144.036,43.792,144.553,43.792 M161.438,43.792
	c0.519,0,0.938-0.42,0.938-0.938v-5.916c0-0.518-0.42-0.938-0.938-0.938c-0.518,0-0.938,0.42-0.938,0.938v5.916
	C160.5,43.373,160.92,43.792,161.438,43.792"/>
<path fill="#131324" d="M109.684,63.857c0,1.184,0.84,2.143,1.877,2.143c1.035,0,1.875-0.959,1.875-2.143
	c0-1.186-0.84-2.145-1.875-2.145C110.523,61.714,109.684,62.673,109.684,63.857 M126.57,63.857c0,1.184,0.839,2.143,1.875,2.143
	c1.037,0,1.877-0.959,1.877-2.143c0-1.186-0.84-2.145-1.877-2.145C127.409,61.714,126.57,62.673,126.57,63.857 M104,37.07
	c0,0.593,0.421,1.072,0.938,1.072h1.951l1.166,5.69l1.629,9.31c0,0.076,0.031,0.145,0.041,0.219l-0.957,4.908
	c-0.061,0.315,0.006,0.648,0.186,0.9c0.179,0.255,0.445,0.398,0.73,0.398h21.284c0.519,0,0.938-0.479,0.938-1.069
	s-0.42-1.069-0.938-1.069h-20.112l0.431-2.207c0.094,0.017,0.179,0.062,0.274,0.062h17.104c1.036,0,1.661-0.233,2.158-1.605
	l3.048-10.677c0.528-1.913-0.634-2.717-1.669-2.717h-22.516c-0.146,0-0.272,0.059-0.412,0.094l-0.728-3.552
	c-0.099-0.485-0.478-0.828-0.914-0.828h-2.692C104.419,36,104,36.48,104,37.07 M109.721,42.43h22.336l-2.994,10.497
	c-0.037,0.093-0.064,0.159-0.088,0.204c-0.062,0.006-0.16,0.014-0.312,0.014h-17.102v-0.213l-0.037-0.207L109.721,42.43z"/>
<path fill="#FFFFFF" d="M200.125,43.5h-11.21h-3.79h-11.25c-1.035,0-1.875,0.84-1.875,1.875V51h1.875v13.125
	c0,1.035,0.84,1.875,1.875,1.875h9.375h3.79h9.335c1.035,0,1.875-0.84,1.875-1.875V51H202v-5.625
	C202,44.34,201.16,43.5,200.125,43.5 M173.875,45.375h11.25v3.75h-11.25V45.375z M175.75,51h9.375v13.125h-9.375V51z M198.25,64.125
	h-9.335V51h9.335V64.125z M200.125,49.125h-11.21v-3.75h11.21V49.125z M187,41.625c0-0.003-0.002-0.011-0.002-0.016h0.006
	C187.002,41.614,187,41.622,187,41.625h7.5c2.589,0,3.75-1.26,3.75-2.812c0-1.552-1.161-2.812-3.75-2.812
	c-2.424,0-4.333,1.091-5.625,2.356c-0.566-0.334-1.221-0.539-1.93-0.539c-0.68,0-1.307,0.189-1.858,0.502
	C183.797,37.068,181.9,36,179.5,36c-2.589,0-3.75,1.26-3.75,2.812c0,1.552,1.161,2.812,3.75,2.812L187,41.625L187,41.625z
	 M196.375,38.812c0,0.772-1.02,0.938-1.875,0.938h-4.258c-0.016-0.025-0.028-0.055-0.043-0.079c0.951-0.926,2.396-1.796,4.301-1.796
	C195.355,37.875,196.375,38.038,196.375,38.812 M177.625,38.812c0-0.774,1.02-0.938,1.875-0.938c1.863,0,3.277,0.834,4.229,1.729
	c-0.027,0.047-0.051,0.098-0.08,0.146H179.5C178.645,39.75,177.625,39.587,177.625,38.812"/>
<g>
	<path fill="none" stroke="#FFFFFF" stroke-width="2" stroke-linecap="round" stroke-linejoin="round" stroke-miterlimit="10" d="
		M16.992,36h-1.424c-0.93,0-0.848,1.207-0.848,1.207h0.33c-0.769,2.083-0.071,1.887-0.071,1.887c0,2.312-0.27,3.047-0.785,3.639
		c-1.527,1.758-1.019,4.19-1.567,4.996c-1.342,1.965-1.301,3.166-1.301,3.693c0,0.361,0.021,10.129,0,12.408
		s1.891,2.169,1.891,2.169h3.774"/>
	<path fill="none" stroke="#FFFFFF" stroke-width="2" stroke-linecap="round" stroke-linejoin="round" stroke-miterlimit="10" d="
		M17.008,65.999h3.774c0,0,1.912,0.108,1.891-2.169c-0.021-2.278,0-12.048,0-12.408c0-0.527,0.041-1.729-1.301-3.695
		c-0.548-0.804-0.039-3.237-1.567-4.994c-0.515-0.592-0.785-1.325-0.785-3.639c0,0,0.698,0.195-0.071-1.888h0.331
		c0,0,0.082-1.206-0.849-1.206h-1.424"/>
	<rect x="11.327" y="53.195" fill="#FFFFFF" width="11.347" height="8.781"/>
</g>
<path fill="#131425" d="M47.247,66h5.622l0.003-15l5.105-0.002l0.548-5.169h-5.656l0.007-2.587c0-1.348,0.091-2.07,2.027-2.07h3.573
	V36h-5.124c-4.967,0-6.11,2.566-6.11,6.784l0.005,3.045l-3.771,0.002V51h3.771V66z"/>
<rect x="92.591" y="114.172" fill="none" width="34" height="68"/>
<g>
	<path fill="#131425" d="M93.579,18.575c-0.309,0.756-0.599,1.471-0.894,2.182c-0.016,0.04-0.075,0.073-0.119,0.083
		c-0.059,0.015-0.124,0.004-0.187,0.004c-5.362,0-10.726,0-16.088,0c-0.062,0-0.125-0.002-0.187,0.001
		c-0.175,0.009-0.233,0.088-0.171,0.252c0.179,0.472,0.366,0.941,0.552,1.411c0.408,1.032,1.075,1.906,1.735,2.777
		c0.513,0.675,1.139,1.252,1.803,1.78c0.713,0.567,1.46,1.077,2.273,1.5c0.996,0.517,2.045,0.854,3.132,1.098
		c0.704,0.158,1.41,0.27,2.135,0.25c0.473-0.012,0.95,0.037,1.418-0.011c0.663-0.067,1.325-0.172,1.977-0.308
		c0.524-0.11,1.05-0.249,1.545-0.449c0.6-0.242,1.176-0.548,1.749-0.852c0.379-0.202,0.747-0.43,1.096-0.679
		c0.75-0.54,1.445-1.146,2.075-1.826c0.032-0.033,0.068-0.062,0.133-0.121c0,0.099,0,0.157,0,0.216c0,0.911-0.004,1.821,0.004,2.73
		c0.001,0.152-0.053,0.253-0.165,0.332c-0.949,0.66-1.899,1.319-2.948,1.813c-1.04,0.488-2.129,0.839-3.25,1.087
		C90.509,32,89.818,32.126,89.11,32.14c-0.662,0.011-1.326,0.057-1.987,0.031c-0.488-0.019-0.972-0.137-1.461-0.184
		c-0.759-0.072-1.487-0.284-2.201-0.524c-0.708-0.238-1.43-0.448-2.078-0.848c-0.528-0.327-1.098-0.586-1.627-0.914
		c-0.365-0.224-0.703-0.5-1.033-0.775c-0.464-0.387-0.936-0.771-1.36-1.201c-0.808-0.815-1.51-1.72-2.11-2.702
		c-0.484-0.792-0.876-1.626-1.196-2.495c-0.179-0.484-0.314-0.985-0.473-1.479c-0.046-0.147-0.143-0.21-0.31-0.21
		c-1.483,0.006-2.966,0.004-4.448,0.004c-0.083,0-0.166,0-0.276,0c0.112-0.286,0.214-0.55,0.322-0.812
		c0.179-0.437,0.375-0.866,0.54-1.307c0.052-0.14,0.123-0.152,0.242-0.152c1.053,0.003,2.107,0.001,3.16,0.001
		c0.294,0,0.366-0.087,0.317-0.381c-0.114-0.685-0.103-1.37,0.001-2.055c0.043-0.294-0.024-0.379-0.319-0.379
		c-1.338,0-2.675,0-4.013,0c-0.073,0-0.147,0-0.249,0c0.208-0.509,0.403-0.987,0.602-1.464c0.083-0.203,0.194-0.396,0.253-0.604
		c0.045-0.159,0.135-0.16,0.259-0.16c1.19,0.001,2.383-0.005,3.575,0.007c0.222,0.001,0.307-0.087,0.351-0.284
		c0.17-0.756,0.482-1.462,0.782-2.174c0.319-0.761,0.716-1.475,1.165-2.166c0.426-0.657,0.903-1.271,1.413-1.866
		c0.546-0.637,1.173-1.185,1.847-1.669c0.771-0.553,1.549-1.114,2.386-1.551c1.142-0.597,2.367-1.016,3.62-1.328
		c0.46-0.116,0.94-0.168,1.415-0.217c0.491-0.05,0.987-0.071,1.481-0.085c0.487-0.014,0.978-0.04,1.46,0.006
		c0.657,0.062,1.311,0.177,1.963,0.289c0.943,0.164,1.849,0.475,2.726,0.841c0.671,0.28,1.311,0.649,1.938,1.023
		c0.58,0.345,1.139,0.73,1.681,1.134c0.368,0.274,0.694,0.606,1.032,0.919c0.036,0.032,0.063,0.115,0.047,0.156
		c-0.289,0.729-0.583,1.456-0.879,2.183c-0.003,0.011-0.02,0.016-0.051,0.039c-0.134-0.152-0.261-0.315-0.407-0.458
		c-0.664-0.649-1.369-1.25-2.13-1.783c-0.67-0.468-1.405-0.806-2.151-1.137c-0.792-0.351-1.622-0.557-2.457-0.747
		c-0.47-0.106-0.957-0.155-1.438-0.193C88.546,4.43,88.054,4.4,87.566,4.43c-0.632,0.039-1.263,0.128-1.89,0.224
		c-0.409,0.062-0.821,0.141-1.21,0.273c-0.67,0.229-1.344,0.462-1.98,0.769c-0.9,0.435-1.732,0.99-2.508,1.622
		c-0.907,0.741-1.665,1.613-2.356,2.556c-0.751,1.023-1.256,2.16-1.678,3.344c-0.084,0.235-0.029,0.312,0.229,0.312
		c2.231,0.001,4.462,0.001,6.693,0.001c4.185,0,8.37,0,12.556,0c0.082,0,0.164,0,0.278,0c-0.183,0.425-0.354,0.825-0.527,1.224
		c-0.117,0.27-0.251,0.532-0.35,0.81c-0.054,0.153-0.126,0.197-0.28,0.197c-1.636-0.005-3.271-0.003-4.906-0.003
		c-4.601,0-9.202,0-13.803,0c-0.482,0-0.499-0.001-0.513,0.487c-0.018,0.61-0.007,1.222-0.002,1.833c0,0.115,0.01,0.237,0.048,0.344
		c0.022,0.062,0.104,0.117,0.17,0.145c0.06,0.024,0.137,0.005,0.206,0.005c5.848,0,11.696,0,17.545,0
		C93.372,18.575,93.459,18.575,93.579,18.575z"/>
</g>
<g>
	<path fill="#FFFFFF" d="M93.613,52.396c-0.309,0.756-0.599,1.472-0.894,2.182c-0.016,0.04-0.075,0.072-0.119,0.085
		c-0.059,0.014-0.124,0.003-0.187,0.003c-5.363,0-10.726,0-16.089,0c-0.062,0-0.125-0.003-0.187,0.002
		c-0.175,0.009-0.233,0.089-0.171,0.252c0.179,0.473,0.366,0.939,0.552,1.411c0.408,1.03,1.075,1.903,1.735,2.776
		c0.513,0.676,1.139,1.252,1.803,1.779c0.713,0.566,1.46,1.077,2.273,1.5c0.996,0.518,2.045,0.854,3.132,1.098
		c0.704,0.158,1.41,0.27,2.135,0.252c0.473-0.014,0.95,0.035,1.418-0.014c0.663-0.065,1.325-0.172,1.977-0.308
		c0.524-0.108,1.05-0.248,1.545-0.447c0.6-0.241,1.176-0.549,1.749-0.853c0.379-0.203,0.747-0.43,1.096-0.68
		c0.75-0.539,1.445-1.146,2.075-1.826c0.032-0.033,0.068-0.062,0.133-0.121c0,0.101,0,0.156,0,0.218c0,0.91-0.004,1.819,0.004,2.729
		c0.001,0.151-0.053,0.254-0.165,0.332c-0.949,0.658-1.899,1.317-2.948,1.812c-1.04,0.486-2.128,0.838-3.25,1.087
		c-0.688,0.151-1.378,0.278-2.086,0.293c-0.663,0.011-1.326,0.056-1.988,0.032c-0.488-0.02-0.972-0.139-1.46-0.186
		c-0.76-0.072-1.487-0.283-2.202-0.522c-0.708-0.238-1.43-0.448-2.078-0.849c-0.528-0.328-1.098-0.588-1.627-0.914
		c-0.365-0.224-0.703-0.498-1.033-0.774c-0.464-0.388-0.936-0.772-1.36-1.201c-0.808-0.815-1.51-1.72-2.11-2.702
		c-0.484-0.792-0.876-1.626-1.196-2.494c-0.179-0.484-0.314-0.984-0.473-1.479c-0.046-0.146-0.143-0.208-0.31-0.208
		c-1.483,0.006-2.966,0.003-4.449,0.003c-0.083,0-0.165,0-0.276,0c0.112-0.285,0.214-0.55,0.322-0.812
		c0.179-0.437,0.375-0.865,0.54-1.307c0.052-0.14,0.123-0.15,0.242-0.15c1.053,0.002,2.107,0,3.16,0
		c0.294,0,0.366-0.086,0.317-0.381c-0.114-0.686-0.103-1.369,0.001-2.057c0.043-0.293-0.024-0.377-0.319-0.377
		c-1.338,0-2.675,0-4.013,0c-0.073,0-0.147,0-0.249,0c0.208-0.51,0.403-0.989,0.602-1.466c0.083-0.203,0.194-0.396,0.253-0.604
		c0.045-0.156,0.135-0.16,0.259-0.16c1.191,0.004,2.383-0.004,3.575,0.008c0.222,0.002,0.307-0.086,0.351-0.282
		c0.17-0.757,0.482-1.463,0.782-2.175c0.319-0.76,0.716-1.476,1.165-2.166c0.426-0.658,0.903-1.271,1.413-1.865
		c0.546-0.637,1.173-1.186,1.847-1.67c0.771-0.555,1.549-1.112,2.386-1.551c1.142-0.598,2.367-1.017,3.62-1.328
		c0.46-0.116,0.94-0.168,1.415-0.217c0.492-0.051,0.987-0.072,1.481-0.084c0.487-0.017,0.978-0.041,1.46,0.006
		c0.657,0.061,1.311,0.176,1.963,0.289c0.943,0.162,1.849,0.475,2.726,0.842c0.671,0.279,1.311,0.648,1.938,1.021
		c0.58,0.346,1.139,0.73,1.681,1.135c0.369,0.272,0.694,0.604,1.033,0.92c0.035,0.029,0.062,0.115,0.046,0.154
		c-0.289,0.73-0.583,1.456-0.879,2.184c-0.003,0.011-0.02,0.017-0.051,0.037c-0.134-0.15-0.261-0.313-0.407-0.457
		c-0.664-0.648-1.369-1.25-2.13-1.782c-0.67-0.468-1.405-0.808-2.151-1.138c-0.792-0.353-1.622-0.559-2.457-0.748
		c-0.47-0.105-0.957-0.154-1.438-0.193c-0.488-0.038-0.98-0.066-1.468-0.038c-0.632,0.04-1.263,0.129-1.89,0.224
		c-0.409,0.062-0.821,0.142-1.21,0.274c-0.67,0.228-1.344,0.462-1.98,0.769c-0.9,0.435-1.732,0.99-2.509,1.623
		c-0.907,0.739-1.665,1.612-2.356,2.557c-0.751,1.021-1.256,2.158-1.678,3.343c-0.084,0.235-0.029,0.312,0.229,0.312
		c2.231,0.002,4.462,0.002,6.694,0.002c4.185,0,8.37,0,12.555,0c0.082,0,0.164,0,0.278,0c-0.183,0.424-0.354,0.826-0.527,1.225
		c-0.117,0.27-0.251,0.531-0.35,0.811c-0.053,0.15-0.126,0.196-0.28,0.196c-1.636-0.007-3.271-0.003-4.906-0.003
		c-4.601,0-9.202,0-13.803,0c-0.482,0-0.499-0.002-0.513,0.486c-0.018,0.609-0.007,1.223-0.002,1.834
		c0,0.115,0.01,0.236,0.048,0.344c0.022,0.062,0.104,0.116,0.17,0.145c0.06,0.024,0.137,0.006,0.206,0.006
		c5.848,0,11.696,0,17.545,0C93.407,52.396,93.494,52.396,93.613,52.396z"/>
</g>
<path fill="#131324" d="M235.24,4.548H205.7c-0.626,0-1.133,0.583-1.133,1.301v18.598v4.061c0,0.586,0.344,1.062,0.806,1.227
	c0.105,0.038,0.211,0.074,0.327,0.074h29.54c0.625,0,1.133-0.583,1.133-1.301V5.849C236.373,5.128,235.865,4.548,235.24,4.548z
	 M233.01,27.206h-1.117h-25.06v-2.759V7.149h27.274v20.057H233.01z M235.24,18.802c-0.393,0-0.712-0.367-0.712-0.819
	c0-0.449,0.319-0.816,0.712-0.816c0.392,0,0.712,0.364,0.712,0.816C235.952,18.435,235.632,18.802,235.24,18.802z M213.912,13.566
	h-1.321v-0.118c0.203-0.002,0.351-0.05,0.429-0.145c0.083-0.095,0.122-0.257,0.122-0.485V9.794l-0.079-0.115
	c-0.08-0.113-0.148-0.188-0.208-0.224c-0.062-0.036-0.148-0.056-0.264-0.06V9.277h1.321l1.838,2.659v-1.843
	c0-0.258-0.031-0.43-0.098-0.521c-0.087-0.121-0.234-0.18-0.442-0.176V9.277h1.232v0.118c-0.159,0.023-0.263,0.053-0.319,0.09
	c-0.054,0.037-0.096,0.098-0.124,0.179c-0.029,0.083-0.047,0.226-0.047,0.428v3.567h-0.092l-2.521-3.567v2.722
	c0,0.249,0.051,0.414,0.146,0.5c0.098,0.087,0.211,0.13,0.337,0.13h0.088L213.912,13.566L213.912,13.566z M219.737,13.566h-3.22
	v-0.118h0.123c0.108,0,0.196-0.024,0.262-0.068c0.047-0.028,0.083-0.078,0.109-0.15c0.021-0.052,0.029-0.184,0.029-0.4v-2.819
	c0-0.193-0.004-0.312-0.015-0.356c-0.018-0.071-0.053-0.129-0.103-0.169c-0.069-0.06-0.163-0.089-0.285-0.089h-0.124V9.28h3.118
	v1.266h-0.104c-0.052-0.308-0.127-0.532-0.225-0.666c-0.096-0.135-0.231-0.234-0.406-0.298c-0.104-0.039-0.297-0.058-0.577-0.058
	h-0.386v1.745h0.074c0.235,0,0.405-0.085,0.514-0.258c0.104-0.169,0.173-0.422,0.202-0.754h0.104V12.5h-0.104
	c-0.022-0.245-0.068-0.446-0.141-0.601c-0.069-0.155-0.15-0.261-0.245-0.313c-0.095-0.053-0.229-0.079-0.406-0.079v1.205
	c0,0.237,0.008,0.38,0.024,0.434c0.02,0.053,0.052,0.095,0.097,0.131c0.051,0.033,0.126,0.048,0.231,0.048h0.224
	c0.35,0,0.628-0.09,0.839-0.276c0.209-0.186,0.358-0.469,0.45-0.847h0.102L219.737,13.566z M220.288,9.526
	c-0.05-0.073-0.135-0.118-0.251-0.13V9.28h1.616v0.116c-0.131,0.005-0.218,0.028-0.26,0.07c-0.042,0.04-0.065,0.091-0.065,0.153
	c0,0.079,0.044,0.25,0.135,0.507l0.731,2.08l0.585-1.625l-0.152-0.455c-0.085-0.246-0.148-0.412-0.195-0.497
	c-0.047-0.083-0.101-0.143-0.157-0.179c-0.06-0.035-0.144-0.054-0.263-0.054V9.28h1.802v0.118c-0.124,0.002-0.217,0.014-0.27,0.036
	c-0.039,0.015-0.067,0.039-0.091,0.072c-0.021,0.034-0.033,0.074-0.033,0.118c0,0.048,0.043,0.197,0.124,0.447l0.678,2.029
	l0.605-1.836c0.065-0.191,0.105-0.319,0.118-0.39c0.018-0.069,0.022-0.132,0.022-0.192c0-0.086-0.026-0.154-0.075-0.204
	c-0.053-0.049-0.15-0.076-0.295-0.081V9.279h0.966v0.117c-0.069,0.008-0.129,0.029-0.177,0.068
	c-0.049,0.037-0.092,0.095-0.128,0.172c-0.01,0.025-0.066,0.188-0.174,0.489l-1.169,3.539h-0.105l-0.923-2.762l-1.015,2.762h-0.103
	l-1.226-3.499C220.424,9.812,220.337,9.601,220.288,9.526z M225.838,13.661h-0.102v-1.618h0.102c0.08,0.455,0.235,0.802,0.466,1.043
	c0.23,0.239,0.478,0.356,0.744,0.356c0.206,0,0.369-0.066,0.488-0.192c0.12-0.128,0.186-0.278,0.186-0.448
	c0-0.103-0.024-0.202-0.069-0.296c-0.048-0.094-0.117-0.185-0.214-0.269c-0.095-0.086-0.264-0.198-0.506-0.334
	c-0.341-0.191-0.584-0.353-0.731-0.49c-0.148-0.135-0.262-0.286-0.342-0.45c-0.08-0.167-0.119-0.352-0.119-0.55
	c0-0.342,0.107-0.631,0.326-0.873c0.218-0.241,0.492-0.36,0.825-0.36c0.119,0,0.236,0.018,0.35,0.051
	c0.085,0.024,0.191,0.071,0.314,0.142c0.123,0.068,0.211,0.103,0.26,0.103c0.048,0,0.085-0.019,0.113-0.05
	c0.026-0.033,0.054-0.117,0.077-0.245h0.08l0.03,1.43h-0.11c-0.055-0.355-0.187-0.646-0.394-0.866
	c-0.207-0.216-0.43-0.327-0.672-0.327c-0.189,0-0.335,0.059-0.445,0.172c-0.109,0.115-0.162,0.248-0.162,0.396
	c0,0.095,0.021,0.179,0.059,0.255c0.053,0.1,0.139,0.196,0.253,0.293c0.088,0.071,0.288,0.194,0.597,0.371
	c0.436,0.248,0.729,0.479,0.884,0.698c0.147,0.217,0.224,0.469,0.224,0.752c0,0.356-0.121,0.666-0.363,0.923
	c-0.241,0.257-0.551,0.387-0.922,0.387c-0.118,0-0.229-0.013-0.333-0.041c-0.106-0.026-0.237-0.079-0.395-0.156
	c-0.087-0.042-0.16-0.063-0.215-0.063c-0.048,0-0.099,0.021-0.153,0.063C225.913,13.515,225.87,13.575,225.838,13.661z
	 M231.421,15.815h-21.904v-1.133h21.904V15.815z M214.06,17.418h5.876v1.133h-5.876V17.418z M214.06,20.153h5.876v1.133h-5.876
	V20.153z M209.548,22.889h10.388v1.133h-10.388V22.889z M221.005,17.418h10.386v1.133h-10.386V17.418z M221.005,20.153h10.386v1.133
	h-10.386V20.153z M221.005,22.889h10.386v1.133h-10.386V22.889z M211.658,21.522h-0.069v0.112h1.705v-0.112
	c-0.104-0.01-0.189-0.046-0.249-0.108c-0.079-0.082-0.182-0.28-0.302-0.595l-1.271-3.329h-0.05l-1.26,3.238
	c-0.12,0.309-0.222,0.513-0.304,0.612c-0.081,0.099-0.185,0.16-0.311,0.181v0.111h1.171v-0.111c-0.184-0.015-0.299-0.04-0.345-0.07
	c-0.08-0.056-0.119-0.14-0.119-0.254c0-0.085,0.024-0.193,0.072-0.326l0.149-0.394h1.246l0.186,0.505
	c0.048,0.132,0.073,0.207,0.077,0.225c0.012,0.036,0.018,0.074,0.018,0.108c0,0.062-0.021,0.108-0.06,0.14
	C211.892,21.5,211.795,21.522,211.658,21.522z M210.567,20.257l0.543-1.397l0.523,1.397H210.567z"/>
<path fill="#FFFFFF" d="M235.24,38.371H205.7c-0.626,0-1.133,0.582-1.133,1.301V58.27v4.061c0,0.586,0.344,1.062,0.806,1.227
	c0.105,0.037,0.211,0.074,0.327,0.074h29.54c0.625,0,1.133-0.584,1.133-1.301V39.672C236.373,38.951,235.865,38.371,235.24,38.371z
	 M233.01,61.028h-1.117h-25.06V58.27V40.972h27.274v20.057H233.01z M235.24,52.625c-0.393,0-0.712-0.367-0.712-0.819
	c0-0.448,0.319-0.816,0.712-0.816c0.392,0,0.712,0.364,0.712,0.816S235.632,52.625,235.24,52.625z M213.912,47.389h-1.321v-0.117
	c0.203-0.003,0.351-0.051,0.429-0.146c0.083-0.095,0.122-0.257,0.122-0.485v-3.024l-0.079-0.114
	c-0.08-0.113-0.148-0.188-0.208-0.225c-0.062-0.035-0.148-0.056-0.264-0.061V43.1h1.321l1.838,2.658v-1.843
	c0-0.259-0.031-0.431-0.098-0.521c-0.087-0.12-0.234-0.18-0.442-0.177V43.1h1.232v0.117c-0.159,0.023-0.263,0.054-0.319,0.091
	c-0.054,0.036-0.096,0.098-0.124,0.179c-0.029,0.084-0.047,0.227-0.047,0.429v3.567h-0.092l-2.521-3.567v2.722
	c0,0.249,0.051,0.414,0.146,0.5c0.098,0.087,0.211,0.13,0.337,0.13h0.088L213.912,47.389L213.912,47.389z M219.737,47.389h-3.22
	v-0.117h0.123c0.108,0,0.196-0.024,0.262-0.068c0.047-0.028,0.083-0.078,0.109-0.15c0.021-0.053,0.029-0.184,0.029-0.4v-2.819
	c0-0.193-0.004-0.312-0.015-0.356c-0.018-0.071-0.053-0.129-0.103-0.169c-0.069-0.06-0.163-0.089-0.285-0.089h-0.124v-0.116h3.118
	v1.266h-0.104c-0.052-0.308-0.127-0.532-0.225-0.666c-0.096-0.135-0.231-0.234-0.406-0.298c-0.104-0.039-0.297-0.059-0.577-0.059
	h-0.386v1.746h0.074c0.235,0,0.405-0.086,0.514-0.258c0.104-0.17,0.173-0.423,0.202-0.754h0.104v2.242h-0.104
	c-0.022-0.246-0.068-0.447-0.141-0.602c-0.069-0.155-0.15-0.261-0.245-0.313c-0.095-0.054-0.229-0.079-0.406-0.079v1.205
	c0,0.236,0.008,0.381,0.024,0.434c0.02,0.053,0.052,0.096,0.097,0.131c0.051,0.033,0.126,0.049,0.231,0.049h0.224
	c0.35,0,0.628-0.091,0.839-0.277c0.209-0.186,0.358-0.469,0.45-0.847h0.102L219.737,47.389z M220.288,43.349
	c-0.05-0.073-0.135-0.118-0.251-0.13v-0.116h1.616v0.116c-0.131,0.005-0.218,0.028-0.26,0.07c-0.042,0.04-0.065,0.092-0.065,0.153
	c0,0.079,0.044,0.25,0.135,0.507l0.731,2.08l0.585-1.625l-0.152-0.455c-0.085-0.246-0.148-0.412-0.195-0.496
	s-0.101-0.143-0.157-0.18c-0.06-0.035-0.144-0.053-0.263-0.053v-0.118h1.802v0.118c-0.124,0.002-0.217,0.014-0.27,0.035
	c-0.039,0.015-0.067,0.039-0.091,0.072c-0.021,0.034-0.033,0.074-0.033,0.117c0,0.049,0.043,0.197,0.124,0.447l0.678,2.029
	l0.605-1.836c0.065-0.191,0.105-0.319,0.118-0.391c0.018-0.069,0.022-0.133,0.022-0.192c0-0.087-0.026-0.154-0.075-0.204
	c-0.053-0.049-0.15-0.076-0.295-0.08v-0.117h0.966v0.117c-0.069,0.008-0.129,0.028-0.177,0.067
	c-0.049,0.037-0.092,0.095-0.128,0.173c-0.01,0.025-0.066,0.188-0.174,0.488l-1.169,3.539h-0.105l-0.923-2.762l-1.015,2.762h-0.103
	l-1.226-3.498C220.424,43.635,220.337,43.424,220.288,43.349z M225.838,47.483h-0.102v-1.618h0.102
	c0.08,0.455,0.235,0.803,0.466,1.043c0.23,0.239,0.478,0.357,0.744,0.357c0.206,0,0.369-0.066,0.488-0.193
	c0.12-0.128,0.186-0.277,0.186-0.447c0-0.104-0.024-0.202-0.069-0.297c-0.048-0.094-0.117-0.186-0.214-0.269
	c-0.095-0.086-0.264-0.198-0.506-0.335c-0.341-0.19-0.584-0.353-0.731-0.489c-0.148-0.136-0.262-0.286-0.342-0.45
	c-0.08-0.166-0.119-0.352-0.119-0.55c0-0.342,0.107-0.632,0.326-0.873c0.218-0.241,0.492-0.36,0.825-0.36
	c0.119,0,0.236,0.018,0.35,0.051c0.085,0.023,0.191,0.071,0.314,0.142c0.123,0.067,0.211,0.103,0.26,0.103
	c0.048,0,0.085-0.019,0.113-0.05c0.026-0.033,0.054-0.117,0.077-0.245h0.08l0.03,1.43h-0.11c-0.055-0.355-0.187-0.646-0.394-0.865
	c-0.207-0.217-0.43-0.328-0.672-0.328c-0.189,0-0.335,0.059-0.445,0.173c-0.109,0.115-0.162,0.248-0.162,0.396
	c0,0.096,0.021,0.18,0.059,0.256c0.053,0.1,0.139,0.195,0.253,0.293c0.088,0.071,0.288,0.193,0.597,0.371
	c0.436,0.248,0.729,0.479,0.884,0.697c0.147,0.218,0.224,0.469,0.224,0.753c0,0.356-0.121,0.666-0.363,0.923
	c-0.241,0.258-0.551,0.387-0.922,0.387c-0.118,0-0.229-0.013-0.333-0.04c-0.106-0.026-0.237-0.079-0.395-0.156
	c-0.087-0.042-0.16-0.063-0.215-0.063c-0.048,0-0.099,0.021-0.153,0.063C225.913,47.337,225.87,47.397,225.838,47.483z
	 M231.421,49.637h-21.904v-1.133h21.904V49.637z M214.06,51.24h5.876v1.133h-5.876V51.24z M214.06,53.975h5.876v1.133h-5.876V53.975
	z M209.548,56.711h10.388v1.133h-10.388V56.711z M221.005,51.24h10.386v1.133h-10.386V51.24z M221.005,53.975h10.386v1.133h-10.386
	V53.975z M221.005,56.711h10.386v1.133h-10.386V56.711z M211.658,55.345h-0.069v0.112h1.705v-0.112
	c-0.104-0.01-0.189-0.046-0.249-0.108c-0.079-0.082-0.182-0.279-0.302-0.595l-1.271-3.329h-0.05l-1.26,3.238
	c-0.12,0.309-0.222,0.513-0.304,0.611c-0.081,0.1-0.185,0.16-0.311,0.182v0.111h1.171v-0.111c-0.184-0.016-0.299-0.039-0.345-0.07
	c-0.08-0.056-0.119-0.141-0.119-0.254c0-0.085,0.024-0.193,0.072-0.326l0.149-0.395h1.246l0.186,0.506
	c0.048,0.132,0.073,0.206,0.077,0.225c0.012,0.035,0.018,0.074,0.018,0.108c0,0.062-0.021,0.108-0.06,0.14
	C211.892,55.322,211.795,55.345,211.658,55.345z M210.567,54.079l0.543-1.397l0.523,1.397H210.567z"/>
</svg>
